<?xml version="1.0" encoding="utf-8"?>
<!-- Generator: Adobe Illustrator 16.0.0, SVG Export Plug-In . SVG Version: 6.00 Build 0)  -->
<!DOCTYPE svg PUBLIC "-//W3C//DTD SVG 1.1//EN" "http://www.w3.org/Graphics/SVG/1.1/DTD/svg11.dtd">
<svg version="1.1" id="Warstwa_1" xmlns="http://www.w3.org/2000/svg" xmlns:xlink="http://www.w3.org/1999/xlink" x="0px" y="0px"
	 width="430.417px" height="103.316px" viewBox="0 0 430.417 103.316" enable-background="new 0 0 430.417 103.316"
	 xml:space="preserve">
<g id="Warstwa_2">
</g>
<linearGradient id="SVGID_1_" gradientUnits="userSpaceOnUse" x1="0" y1="51.6309" x2="35.5288" y2="51.6309">
	<stop  offset="0" style="stop-color:#FF53A5"/>
	<stop  offset="1" style="stop-color:#00BFCC"/>
</linearGradient>
<path fill-rule="evenodd" clip-rule="evenodd" fill="url(#SVGID_1_)" d="M26.26,5.322c3.161,5.47,5.858,10.353,8.78,15.097
	c1.296,2.106-0.312,3.318-1.073,4.673C29.4,33.221,24.76,41.31,19.991,49.321c-1.044,1.754-1.012,3.016-0.001,4.728
	c4.805,8.138,9.446,16.374,14.229,24.524c1.161,1.979,1.431,3.499,0.001,5.663c-2.798,4.236-5.105,8.798-7.887,13.703
	c-4.571-7.837-8.932-15.257-13.234-22.712C8.998,68.12,4.965,60.973,0.885,53.853c-0.675-1.178-1.356-2.111-0.445-3.677
	C8.995,35.457,17.442,20.676,26.26,5.322z"/>
<linearGradient id="SVGID_2_" gradientUnits="userSpaceOnUse" x1="151.1733" y1="51.5303" x2="186.6709" y2="51.5303">
	<stop  offset="0" style="stop-color:#FF53A5"/>
	<stop  offset="1" style="stop-color:#00BFCC"/>
</linearGradient>
<path fill-rule="evenodd" clip-rule="evenodd" fill="url(#SVGID_2_)" d="M160.404,5.33c5.792,10.036,11.33,19.613,16.849,29.2
	c2.915,5.063,5.754,10.17,8.729,15.196c0.77,1.301,0.983,2.311,0.174,3.703c-8.31,14.291-16.557,28.62-24.83,42.934
	c-0.231,0.398-0.542,0.751-0.995,1.369c-2.992-5.145-5.798-10.111-8.76-14.983c-0.988-1.626,0.092-2.588,0.729-3.701
	c4.751-8.311,9.486-16.632,14.359-24.87c1.097-1.854,1.052-3.186-0.063-5.052c-4.655-7.791-9.021-15.754-13.672-23.548
	c-1.468-2.46-1.959-4.397-0.19-7.04C155.479,14.441,157.724,10.01,160.404,5.33z"/>
<linearGradient id="SVGID_3_" gradientUnits="userSpaceOnUse" x1="34.2954" y1="51.6582" x2="152.3267" y2="51.6582">
	<stop  offset="0" style="stop-color:#FF53A5"/>
	<stop  offset="1" style="stop-color:#00BFCC"/>
</linearGradient>
<path fill-rule="evenodd" clip-rule="evenodd" fill="url(#SVGID_3_)" d="M151.712,49.522c-9.231-15.804-18.373-31.661-27.47-47.543
	C123.47,0.63,122.707-0.004,121.089,0C102.6,0.053,84.109,0.048,65.62,0.006c-1.41-0.004-2.292,0.398-3.003,1.641
	C53.405,17.737,44.175,33.818,34.879,49.86c-0.807,1.394-0.757,2.398,0.023,3.741c9.128,15.715,18.238,31.44,27.246,47.225
	c1.087,1.905,2.313,2.516,4.439,2.489c8.87-0.114,17.74-0.048,26.61-0.048c9.12,0,18.241-0.057,27.36,0.047
	c1.858,0.021,2.854-0.554,3.775-2.169c9.001-15.781,18.077-31.521,27.182-47.243C152.389,52.393,152.706,51.225,151.712,49.522z
	 M132.527,53.813c-5.88,10.117-11.713,20.262-17.494,30.436c-1.018,1.79-2.16,2.607-4.384,2.581
	c-11.495-0.139-22.992-0.099-34.488-0.03c-1.894,0.012-3.14-0.315-4.194-2.175C66.072,74.23,60.016,63.929,53.98,53.615
	c-0.869-1.484-0.645-2.688,0.2-4.138c5.83-10,11.617-20.026,17.304-30.109c1.163-2.062,2.406-3.021,4.941-2.909
	c5.613,0.246,11.243,0.077,16.867,0.077c5.748,0,11.5,0.128,17.243-0.066c2.189-0.074,3.416,0.719,4.424,2.48
	c5.877,10.266,11.765,20.526,17.726,30.745C133.577,51.226,133.361,52.378,132.527,53.813z"/>
<g>
	<path fill="#FFFFFF" d="M226.689,40.052c1.456,0,2.724-0.132,3.804-0.396s2.108-0.628,3.084-1.092v-6.312h-4.344
		c-0.416,0-0.744-0.116-0.984-0.348s-0.36-0.516-0.36-0.852v-3.648h11.544v14.04c-0.88,0.64-1.796,1.196-2.748,1.668
		c-0.952,0.472-1.968,0.86-3.048,1.164c-1.08,0.304-2.236,0.532-3.468,0.684c-1.232,0.152-2.56,0.228-3.984,0.228
		c-2.528,0-4.856-0.439-6.984-1.32c-2.128-0.88-3.968-2.104-5.52-3.672c-1.552-1.568-2.764-3.44-3.636-5.616
		c-0.872-2.176-1.308-4.552-1.308-7.128c0-2.608,0.424-5,1.272-7.176s2.052-4.048,3.612-5.616c1.56-1.568,3.452-2.784,5.676-3.648
		s4.72-1.296,7.488-1.296c2.832,0,5.284,0.42,7.356,1.26c2.072,0.84,3.828,1.932,5.268,3.276l-1.872,2.928
		c-0.368,0.592-0.856,0.888-1.464,0.888c-0.384,0-0.776-0.128-1.176-0.384c-0.512-0.304-1.036-0.608-1.572-0.912
		c-0.537-0.304-1.128-0.567-1.776-0.792c-0.648-0.224-1.376-0.408-2.184-0.552c-0.808-0.144-1.74-0.216-2.796-0.216
		c-1.712,0-3.26,0.288-4.644,0.864s-2.564,1.4-3.54,2.472c-0.977,1.072-1.728,2.36-2.256,3.864c-0.528,1.504-0.792,3.184-0.792,5.04
		c0,2,0.28,3.78,0.84,5.34c0.56,1.56,1.344,2.876,2.352,3.948c1.008,1.072,2.208,1.892,3.6,2.46
		C223.521,39.768,225.041,40.052,226.689,40.052z"/>
	<path fill="#FFFFFF" d="M255.297,19.796c1.551,0,2.979,0.248,4.284,0.744c1.304,0.496,2.428,1.22,3.372,2.172
		c0.944,0.952,1.68,2.12,2.208,3.504s0.792,2.964,0.792,4.74c0,0.448-0.02,0.82-0.06,1.116c-0.04,0.296-0.112,0.528-0.216,0.696
		c-0.104,0.168-0.244,0.288-0.42,0.36c-0.176,0.072-0.4,0.108-0.672,0.108h-15.216c0.176,2.528,0.856,4.384,2.04,5.568
		c1.184,1.184,2.751,1.776,4.704,1.776c0.96,0,1.788-0.112,2.484-0.336c0.696-0.224,1.304-0.472,1.824-0.744
		c0.52-0.271,0.976-0.52,1.368-0.744s0.772-0.336,1.14-0.336c0.24,0,0.448,0.048,0.624,0.144c0.176,0.096,0.328,0.232,0.456,0.408
		l1.728,2.16c-0.656,0.768-1.392,1.412-2.208,1.932c-0.816,0.521-1.668,0.936-2.556,1.248s-1.792,0.532-2.712,0.66
		c-0.92,0.128-1.812,0.192-2.676,0.192c-1.712,0-3.304-0.284-4.776-0.852c-1.472-0.567-2.752-1.408-3.84-2.52
		c-1.088-1.112-1.944-2.487-2.568-4.128c-0.624-1.64-0.936-3.54-0.936-5.7c0-1.68,0.271-3.26,0.816-4.74
		c0.543-1.479,1.324-2.768,2.34-3.864c1.016-1.096,2.256-1.964,3.72-2.604C251.805,20.116,253.457,19.796,255.297,19.796z
		 M255.417,24.044c-1.728,0-3.08,0.488-4.056,1.464c-0.977,0.976-1.6,2.36-1.872,4.152h11.136c0-0.768-0.104-1.492-0.312-2.172
		s-0.528-1.276-0.96-1.788c-0.432-0.512-0.976-0.916-1.632-1.212C257.064,24.192,256.296,24.044,255.417,24.044z"/>
	<path fill="#FFFFFF" d="M270.776,44.804V20.18h3.624c0.768,0,1.272,0.36,1.512,1.08l0.408,1.944
		c0.496-0.512,1.02-0.976,1.572-1.392c0.552-0.416,1.136-0.776,1.752-1.08c0.616-0.304,1.275-0.536,1.98-0.696
		c0.704-0.16,1.472-0.24,2.304-0.24c1.344,0,2.536,0.228,3.576,0.684c1.04,0.456,1.908,1.096,2.604,1.92s1.224,1.808,1.584,2.952
		c0.36,1.144,0.54,2.404,0.54,3.78v15.672h-5.928V29.132c0-1.504-0.348-2.668-1.044-3.492c-0.696-0.824-1.74-1.236-3.132-1.236
		c-1.024,0-1.984,0.232-2.88,0.696c-0.896,0.464-1.744,1.096-2.544,1.896v17.808H270.776z"/>
	<path fill="#FFFFFF" d="M308.24,19.796c1.552,0,2.98,0.248,4.285,0.744c1.303,0.496,2.428,1.22,3.371,2.172
		c0.945,0.952,1.68,2.12,2.209,3.504c0.527,1.384,0.791,2.964,0.791,4.74c0,0.448-0.02,0.82-0.059,1.116
		c-0.041,0.296-0.113,0.528-0.217,0.696s-0.244,0.288-0.42,0.36c-0.176,0.072-0.4,0.108-0.672,0.108h-15.216
		c0.176,2.528,0.855,4.384,2.04,5.568c1.184,1.184,2.752,1.776,4.704,1.776c0.961,0,1.789-0.112,2.484-0.336
		c0.695-0.224,1.305-0.472,1.824-0.744c0.52-0.271,0.975-0.52,1.367-0.744s0.771-0.336,1.141-0.336c0.24,0,0.447,0.048,0.623,0.144
		c0.176,0.096,0.328,0.232,0.457,0.408l1.729,2.16c-0.656,0.768-1.393,1.412-2.209,1.932c-0.816,0.521-1.668,0.936-2.557,1.248
		c-0.887,0.312-1.791,0.532-2.711,0.66c-0.92,0.128-1.813,0.192-2.676,0.192c-1.712,0-3.304-0.284-4.775-0.852
		c-1.473-0.567-2.753-1.408-3.84-2.52c-1.088-1.112-1.944-2.487-2.568-4.128c-0.624-1.64-0.936-3.54-0.936-5.7
		c0-1.68,0.271-3.26,0.816-4.74c0.543-1.479,1.324-2.768,2.34-3.864c1.016-1.096,2.256-1.964,3.72-2.604S306.4,19.796,308.24,19.796
		z M308.36,24.044c-1.728,0-3.08,0.488-4.056,1.464c-0.977,0.976-1.601,2.36-1.872,4.152h11.135c0-0.768-0.104-1.492-0.311-2.172
		c-0.209-0.68-0.529-1.276-0.961-1.788c-0.432-0.512-0.977-0.916-1.633-1.212C310.007,24.192,309.239,24.044,308.36,24.044z"/>
	<path fill="#FFFFFF" d="M323.72,44.804V20.18h3.48c0.607,0,1.031,0.112,1.271,0.336c0.24,0.224,0.398,0.608,0.48,1.152l0.359,2.976
		c0.879-1.52,1.912-2.72,3.096-3.6s2.512-1.32,3.984-1.32c1.215,0,2.223,0.28,3.023,0.84l-0.768,4.44
		c-0.049,0.288-0.152,0.492-0.313,0.612s-0.375,0.18-0.648,0.18c-0.238,0-0.566-0.056-0.982-0.168
		c-0.418-0.112-0.969-0.168-1.656-0.168c-1.232,0-2.289,0.34-3.168,1.02c-0.881,0.681-1.625,1.676-2.232,2.988v15.336H323.72z"/>
	<path fill="#FFFFFF" d="M361.927,44.804h-2.664c-0.559,0-1-0.084-1.318-0.252c-0.32-0.168-0.561-0.508-0.721-1.02l-0.527-1.752
		c-0.625,0.56-1.236,1.052-1.836,1.476c-0.602,0.424-1.221,0.78-1.861,1.068s-1.32,0.504-2.039,0.648
		c-0.721,0.144-1.521,0.216-2.4,0.216c-1.041,0-2-0.141-2.881-0.421c-0.879-0.281-1.635-0.702-2.268-1.264
		c-0.633-0.562-1.123-1.26-1.477-2.095c-0.352-0.834-0.527-1.806-0.527-2.914c0-0.931,0.244-1.85,0.732-2.757
		c0.488-0.907,1.299-1.726,2.436-2.456s2.648-1.336,4.537-1.818c1.887-0.481,4.23-0.723,7.031-0.723v-1.451
		c0-1.661-0.348-2.89-1.045-3.688c-0.695-0.798-1.707-1.197-3.035-1.197c-0.961,0-1.76,0.112-2.4,0.336s-1.195,0.476-1.668,0.756
		c-0.473,0.28-0.908,0.532-1.309,0.756c-0.398,0.224-0.84,0.336-1.318,0.336c-0.4,0-0.744-0.104-1.033-0.312
		c-0.287-0.208-0.52-0.464-0.695-0.768l-1.08-1.896c2.832-2.592,6.248-3.888,10.248-3.888c1.439,0,2.725,0.236,3.852,0.708
		c1.129,0.472,2.084,1.128,2.869,1.968c0.783,0.84,1.379,1.844,1.787,3.012c0.408,1.168,0.611,2.448,0.611,3.84V44.804z
		 M350.407,41.108c0.607,0,1.168-0.055,1.68-0.166s0.996-0.276,1.453-0.496c0.455-0.221,0.895-0.492,1.32-0.815
		c0.422-0.323,0.852-0.705,1.283-1.146v-4.122c-1.729,0-3.172,0.109-4.332,0.326s-2.092,0.496-2.797,0.834
		c-0.703,0.339-1.203,0.733-1.5,1.185c-0.295,0.451-0.443,0.942-0.443,1.474c0,1.048,0.309,1.797,0.924,2.248
		C348.61,40.882,349.415,41.108,350.407,41.108z"/>
	<path fill="#FFFFFF" d="M375.847,45.188c-2.129,0-3.768-0.604-4.92-1.812c-1.152-1.208-1.729-2.875-1.729-5.004V24.62h-2.496
		c-0.32,0-0.596-0.104-0.828-0.312c-0.232-0.208-0.348-0.52-0.348-0.936V21.02l3.961-0.648l1.246-6.72
		c0.064-0.32,0.213-0.568,0.445-0.744c0.23-0.176,0.523-0.264,0.875-0.264h3.072v7.752h6.48v4.224h-6.48v13.344
		c0,0.768,0.191,1.368,0.576,1.8s0.896,0.648,1.537,0.648c0.367,0,0.676-0.044,0.924-0.132s0.463-0.18,0.646-0.276
		c0.184-0.096,0.35-0.188,0.492-0.276c0.145-0.087,0.289-0.132,0.432-0.132c0.178,0,0.32,0.044,0.434,0.132
		c0.111,0.088,0.23,0.22,0.359,0.396l1.775,2.88c-0.863,0.72-1.855,1.264-2.975,1.632C378.206,45.003,377.046,45.188,375.847,45.188
		z"/>
	<path fill="#FFFFFF" d="M396.847,19.796c1.84,0,3.508,0.296,5.004,0.888c1.496,0.592,2.771,1.432,3.828,2.52
		c1.057,1.088,1.871,2.416,2.447,3.984c0.576,1.568,0.865,3.32,0.865,5.256c0,1.952-0.289,3.712-0.865,5.28
		c-0.576,1.568-1.391,2.904-2.447,4.008s-2.332,1.952-3.828,2.544s-3.164,0.888-5.004,0.888s-3.512-0.296-5.016-0.888
		s-2.789-1.44-3.854-2.544c-1.063-1.104-1.887-2.44-2.471-4.008c-0.584-1.568-0.877-3.328-0.877-5.28
		c0-1.936,0.293-3.688,0.877-5.256c0.584-1.568,1.408-2.896,2.471-3.984c1.064-1.088,2.35-1.928,3.854-2.52
		C393.335,20.092,395.007,19.796,396.847,19.796z M396.847,40.604c2.047,0,3.564-0.688,4.547-2.064
		c0.984-1.375,1.477-3.392,1.477-6.048c0-2.656-0.492-4.68-1.477-6.072c-0.982-1.392-2.5-2.088-4.547-2.088
		c-2.08,0-3.617,0.7-4.607,2.1c-0.992,1.4-1.488,3.42-1.488,6.06s0.496,4.652,1.488,6.036
		C393.229,39.912,394.767,40.604,396.847,40.604z"/>
	<path fill="#FFFFFF" d="M413.622,44.804V20.18h3.48c0.607,0,1.031,0.112,1.271,0.336c0.24,0.224,0.398,0.608,0.48,1.152
		l0.359,2.976c0.879-1.52,1.912-2.72,3.096-3.6s2.512-1.32,3.984-1.32c1.215,0,2.223,0.28,3.023,0.84l-0.768,4.44
		c-0.049,0.288-0.152,0.492-0.313,0.612s-0.375,0.18-0.648,0.18c-0.238,0-0.566-0.056-0.982-0.168
		c-0.418-0.112-0.969-0.168-1.656-0.168c-1.232,0-2.289,0.34-3.168,1.02c-0.881,0.681-1.625,1.676-2.232,2.988v15.336H413.622z"/>
</g>
<g>
	<path fill="#FFFFFF" d="M227.05,57.7c-0.158,0.315-0.34,0.537-0.548,0.666c-0.208,0.129-0.456,0.193-0.742,0.193
		c-0.287,0-0.609-0.11-0.968-0.332c-0.358-0.223-0.781-0.47-1.269-0.742c-0.487-0.271-1.057-0.52-1.709-0.742
		c-0.652-0.222-1.423-0.333-2.312-0.333c-0.803,0-1.501,0.097-2.096,0.29s-1.097,0.463-1.505,0.807
		c-0.409,0.344-0.713,0.756-0.914,1.236c-0.201,0.48-0.301,1.007-0.301,1.58c0,0.73,0.204,1.34,0.613,1.828
		c0.409,0.486,0.949,0.902,1.623,1.246s1.441,0.652,2.301,0.925s1.738,0.563,2.634,0.87c0.896,0.309,1.773,0.667,2.634,1.076
		c0.86,0.408,1.626,0.924,2.3,1.547c0.674,0.624,1.215,1.387,1.624,2.291c0.408,0.902,0.612,1.999,0.612,3.289
		c0,1.404-0.24,2.72-0.72,3.945c-0.48,1.225-1.182,2.293-2.107,3.203c-0.924,0.91-2.053,1.627-3.386,2.15s-2.859,0.785-4.58,0.785
		c-0.989,0-1.964-0.098-2.924-0.291c-0.96-0.193-1.881-0.469-2.763-0.828c-0.881-0.357-1.706-0.787-2.473-1.289
		s-1.451-1.061-2.053-1.678l1.677-2.773c0.157-0.2,0.347-0.369,0.569-0.505s0.47-0.204,0.742-0.204c0.358,0,0.745,0.146,1.161,0.44
		s0.907,0.62,1.473,0.978c0.566,0.359,1.232,0.686,1.999,0.979c0.767,0.295,1.688,0.441,2.763,0.441
		c1.648,0,2.924-0.391,3.827-1.172c0.903-0.781,1.354-1.902,1.354-3.365c0-0.816-0.204-1.482-0.613-1.999
		c-0.408-0.517-0.95-0.95-1.623-1.301c-0.674-0.351-1.44-0.648-2.3-0.893c-0.86-0.243-1.735-0.509-2.623-0.796
		c-0.889-0.286-1.763-0.63-2.623-1.031c-0.86-0.401-1.627-0.925-2.301-1.57c-0.674-0.645-1.214-1.451-1.623-2.418
		c-0.409-0.968-0.613-2.16-0.613-3.58c0-1.132,0.226-2.236,0.677-3.311c0.452-1.075,1.111-2.028,1.978-2.859
		c0.867-0.832,1.931-1.498,3.193-2c1.261-0.502,2.702-0.752,4.321-0.752c1.834,0,3.526,0.287,5.074,0.859
		c1.548,0.574,2.866,1.377,3.956,2.408L227.05,57.7z"/>
	<path fill="#FFFFFF" d="M248.658,65.741c-0.158,0.201-0.312,0.358-0.462,0.473c-0.151,0.115-0.37,0.172-0.656,0.172
		c-0.272,0-0.538-0.082-0.796-0.246c-0.258-0.165-0.566-0.352-0.924-0.56c-0.358-0.208-0.785-0.394-1.279-0.56
		c-0.495-0.164-1.107-0.246-1.838-0.246c-0.932,0-1.749,0.168-2.451,0.504c-0.703,0.338-1.287,0.821-1.752,1.452
		s-0.813,1.394-1.042,2.29c-0.229,0.896-0.344,1.91-0.344,3.042c0,1.175,0.125,2.222,0.376,3.139
		c0.25,0.917,0.613,1.688,1.085,2.312c0.473,0.623,1.046,1.096,1.72,1.419c0.673,0.322,1.433,0.483,2.279,0.483
		s1.53-0.104,2.053-0.312s0.964-0.437,1.322-0.688c0.358-0.25,0.67-0.479,0.936-0.688c0.265-0.207,0.562-0.313,0.892-0.313
		c0.43,0,0.752,0.166,0.967,0.495l1.527,1.935c-0.588,0.688-1.226,1.266-1.914,1.731s-1.401,0.839-2.139,1.118
		c-0.739,0.279-1.502,0.477-2.29,0.591s-1.569,0.172-2.343,0.172c-1.362,0-2.645-0.255-3.849-0.763
		c-1.204-0.509-2.254-1.25-3.15-2.226c-0.896-0.975-1.605-2.168-2.128-3.579c-0.523-1.412-0.785-3.021-0.785-4.827
		c0-1.62,0.233-3.121,0.699-4.505c0.466-1.383,1.15-2.58,2.053-3.59c0.903-1.011,2.021-1.803,3.354-2.376s2.867-0.86,4.601-0.86
		c1.648,0,3.092,0.266,4.332,0.796s2.354,1.29,3.343,2.278L248.658,65.741z"/>
	<path fill="#FFFFFF" d="M253.667,83.135V51.186h5.311v12.276c0.86-0.816,1.806-1.476,2.838-1.978
		c1.032-0.501,2.243-0.753,3.634-0.753c1.204,0,2.271,0.205,3.204,0.613c0.931,0.408,1.709,0.982,2.333,1.72
		c0.624,0.738,1.097,1.62,1.419,2.645c0.323,1.024,0.484,2.153,0.484,3.386v14.04h-5.311v-14.04c0-1.347-0.312-2.389-0.935-3.128
		c-0.624-0.737-1.559-1.106-2.806-1.106c-0.917,0-1.777,0.207-2.58,0.623c-0.803,0.416-1.563,0.982-2.279,1.698v15.953H253.667z"/>
	<path fill="#FFFFFF" d="M287.229,60.731c1.39,0,2.669,0.223,3.838,0.667c1.168,0.444,2.175,1.093,3.021,1.946
		c0.846,0.852,1.505,1.898,1.978,3.139s0.709,2.654,0.709,4.246c0,0.401-0.018,0.734-0.054,1c-0.036,0.266-0.101,0.473-0.193,0.623
		c-0.094,0.15-0.219,0.258-0.376,0.322s-0.358,0.098-0.602,0.098h-13.631c0.158,2.264,0.767,3.927,1.828,4.987
		c1.061,1.062,2.465,1.591,4.214,1.591c0.86,0,1.602-0.1,2.225-0.301s1.168-0.423,1.634-0.666c0.465-0.244,0.874-0.467,1.225-0.667
		s0.691-0.302,1.021-0.302c0.215,0,0.401,0.044,0.559,0.13c0.157,0.086,0.293,0.208,0.408,0.365l1.548,1.935
		c-0.588,0.688-1.247,1.266-1.978,1.731s-1.494,0.839-2.29,1.118c-0.795,0.279-1.605,0.477-2.429,0.591
		c-0.825,0.114-1.624,0.172-2.397,0.172c-1.534,0-2.96-0.255-4.278-0.763c-1.319-0.509-2.465-1.262-3.44-2.258
		c-0.975-0.996-1.742-2.229-2.301-3.698c-0.559-1.469-0.838-3.171-0.838-5.106c0-1.504,0.244-2.92,0.731-4.246
		c0.487-1.325,1.186-2.479,2.096-3.461c0.91-0.982,2.021-1.76,3.333-2.333S285.58,60.731,287.229,60.731z M287.336,64.537
		c-1.548,0-2.759,0.438-3.633,1.312c-0.875,0.875-1.434,2.115-1.677,3.72h9.976c0-0.688-0.093-1.337-0.28-1.946
		c-0.186-0.608-0.473-1.143-0.86-1.602c-0.387-0.459-0.875-0.82-1.462-1.086C288.812,64.67,288.124,64.537,287.336,64.537z"/>
	<path fill="#FFFFFF" d="M301.095,83.135v-22.06h3.247c0.688,0,1.139,0.323,1.354,0.969l0.344,1.633
		c0.387-0.43,0.792-0.824,1.215-1.182c0.422-0.358,0.874-0.667,1.355-0.925c0.479-0.258,0.996-0.462,1.547-0.612
		c0.553-0.15,1.158-0.227,1.816-0.227c1.391,0,2.533,0.377,3.43,1.129s1.566,1.752,2.01,3c0.346-0.731,0.775-1.358,1.291-1.882
		c0.516-0.522,1.082-0.949,1.697-1.279c0.617-0.329,1.273-0.573,1.969-0.731c0.695-0.157,1.393-0.236,2.096-0.236
		c1.219,0,2.301,0.187,3.246,0.559c0.947,0.373,1.742,0.918,2.387,1.635s1.137,1.591,1.473,2.623
		c0.336,1.031,0.506,2.215,0.506,3.547v14.04h-5.311v-14.04c0-1.404-0.309-2.461-0.924-3.171c-0.617-0.71-1.52-1.063-2.709-1.063
		c-0.545,0-1.051,0.093-1.518,0.279c-0.465,0.186-0.873,0.455-1.225,0.806c-0.352,0.352-0.627,0.792-0.828,1.322
		s-0.301,1.14-0.301,1.827v14.04h-5.332v-14.04c0-1.476-0.297-2.551-0.893-3.225c-0.594-0.674-1.473-1.01-2.633-1.01
		c-0.76,0-1.473,0.189-2.14,0.569c-0.666,0.38-1.286,0.899-1.859,1.559v16.146H301.095z"/>
	<path fill="#FFFFFF" d="M354.587,83.135H352.2c-0.502,0-0.895-0.075-1.182-0.226s-0.502-0.455-0.645-0.914l-0.475-1.569
		c-0.559,0.502-1.105,0.942-1.645,1.322c-0.537,0.38-1.092,0.698-1.666,0.956c-0.572,0.259-1.182,0.452-1.826,0.581
		c-0.646,0.129-1.363,0.194-2.15,0.194c-0.932,0-1.793-0.127-2.58-0.378c-0.789-0.251-1.467-0.63-2.031-1.132
		c-0.566-0.504-1.008-1.13-1.322-1.877c-0.316-0.748-0.475-1.619-0.475-2.611c0-0.834,0.219-1.657,0.656-2.47
		c0.438-0.812,1.164-1.546,2.182-2.2s2.373-1.197,4.064-1.629c1.691-0.431,3.791-0.646,6.299-0.646v-1.301
		c0-1.486-0.311-2.588-0.936-3.303c-0.623-0.715-1.529-1.072-2.719-1.072c-0.859,0-1.576,0.1-2.15,0.301
		c-0.572,0.201-1.072,0.426-1.494,0.677s-0.813,0.478-1.172,0.677c-0.357,0.201-0.752,0.302-1.182,0.302
		c-0.359,0-0.668-0.093-0.926-0.28c-0.258-0.186-0.465-0.415-0.623-0.688l-0.967-1.698c2.537-2.322,5.596-3.483,9.18-3.483
		c1.291,0,2.441,0.212,3.451,0.635s1.867,1.01,2.568,1.763c0.703,0.753,1.236,1.652,1.604,2.698
		c0.365,1.047,0.547,2.193,0.547,3.439V83.135z M344.267,79.823c0.545,0,1.047-0.049,1.506-0.147s0.893-0.247,1.301-0.444
		s0.803-0.441,1.182-0.73c0.381-0.289,0.764-0.631,1.15-1.026v-3.692c-1.547,0-2.842,0.098-3.881,0.293
		c-1.039,0.194-1.873,0.443-2.504,0.746c-0.631,0.304-1.078,0.657-1.344,1.062s-0.398,0.845-0.398,1.321
		c0,0.938,0.275,1.609,0.828,2.014S343.378,79.823,344.267,79.823z"/>
	<path fill="#FFFFFF" d="M358.544,80.211c0-0.444,0.082-0.867,0.246-1.269c0.166-0.401,0.395-0.745,0.689-1.032
		c0.293-0.286,0.641-0.517,1.043-0.688c0.4-0.172,0.83-0.258,1.289-0.258c0.443,0,0.867,0.086,1.27,0.258
		c0.4,0.172,0.744,0.402,1.031,0.688c0.287,0.287,0.516,0.631,0.688,1.032s0.258,0.824,0.258,1.269c0,0.458-0.086,0.886-0.258,1.279
		s-0.4,0.734-0.688,1.021c-0.287,0.287-0.631,0.514-1.031,0.678c-0.402,0.164-0.826,0.247-1.27,0.247
		c-0.459,0-0.889-0.083-1.289-0.247c-0.402-0.164-0.75-0.391-1.043-0.678c-0.295-0.286-0.523-0.627-0.689-1.021
		C358.626,81.097,358.544,80.669,358.544,80.211z"/>
	<path fill="#FFFFFF" d="M378.903,60.731c1.648,0,3.143,0.266,4.482,0.796c1.342,0.53,2.484,1.282,3.43,2.257
		c0.947,0.976,1.678,2.165,2.193,3.57c0.516,1.404,0.773,2.974,0.773,4.708c0,1.749-0.258,3.325-0.773,4.729
		c-0.516,1.405-1.246,2.602-2.193,3.591c-0.945,0.989-2.088,1.749-3.43,2.278c-1.34,0.531-2.834,0.796-4.482,0.796
		s-3.146-0.265-4.492-0.796c-1.348-0.529-2.498-1.289-3.451-2.278s-1.691-2.186-2.215-3.591c-0.523-1.404-0.785-2.98-0.785-4.729
		c0-1.734,0.262-3.304,0.785-4.708c0.523-1.405,1.262-2.595,2.215-3.57c0.953-0.975,2.104-1.727,3.451-2.257
		C375.757,60.997,377.255,60.731,378.903,60.731z M378.903,79.372c1.836,0,3.193-0.615,4.074-1.849
		c0.883-1.233,1.322-3.038,1.322-5.418s-0.439-4.192-1.322-5.44c-0.881-1.246-2.238-1.869-4.074-1.869
		c-1.863,0-3.238,0.627-4.127,1.881s-1.334,3.063-1.334,5.429c0,2.364,0.445,4.167,1.334,5.407S377.04,79.372,378.903,79.372z"/>
	<path fill="#FFFFFF" d="M393.933,83.135v-22.06h3.117c0.545,0,0.924,0.102,1.139,0.302s0.359,0.545,0.432,1.032l0.322,2.666
		c0.787-1.361,1.713-2.438,2.773-3.226s2.25-1.183,3.568-1.183c1.09,0,1.992,0.251,2.709,0.753l-0.688,3.978
		c-0.043,0.258-0.137,0.44-0.279,0.548c-0.145,0.108-0.338,0.161-0.582,0.161c-0.215,0-0.508-0.05-0.881-0.15
		c-0.373-0.1-0.867-0.15-1.482-0.15c-1.105,0-2.051,0.305-2.838,0.914c-0.789,0.609-1.455,1.502-2,2.677v13.738H393.933z"/>
	<path fill="#FFFFFF" d="M419.13,60.688c0.945,0,1.834,0.098,2.666,0.291s1.592,0.477,2.279,0.849h6.342v1.978
		c0,0.33-0.086,0.588-0.258,0.774s-0.465,0.315-0.881,0.388l-1.979,0.365c0.143,0.373,0.254,0.767,0.334,1.182
		c0.078,0.416,0.117,0.854,0.117,1.313c0,1.089-0.219,2.074-0.654,2.956c-0.438,0.882-1.041,1.63-1.807,2.247
		c-0.768,0.615-1.678,1.093-2.73,1.43c-1.053,0.336-2.197,0.505-3.43,0.505c-0.832,0-1.641-0.079-2.43-0.237
		c-0.688,0.42-1.031,0.889-1.031,1.408c0,0.447,0.203,0.776,0.613,0.986c0.408,0.209,0.945,0.356,1.611,0.443
		c0.666,0.086,1.422,0.13,2.27,0.13c0.844,0,1.711,0.036,2.6,0.108c0.889,0.071,1.756,0.197,2.602,0.377s1.604,0.464,2.27,0.852
		c0.666,0.389,1.203,0.918,1.611,1.586c0.41,0.668,0.613,1.527,0.613,2.578c0,0.977-0.24,1.926-0.721,2.847
		c-0.48,0.92-1.174,1.739-2.084,2.459c-0.912,0.719-2.025,1.298-3.344,1.736s-2.824,0.658-4.516,0.658
		c-1.676,0-3.131-0.161-4.363-0.483c-1.234-0.323-2.256-0.753-3.064-1.291c-0.811-0.537-1.416-1.157-1.816-1.859
		c-0.402-0.702-0.602-1.434-0.602-2.193c0-1.031,0.314-1.898,0.945-2.602c0.631-0.701,1.504-1.261,2.623-1.676
		c-0.545-0.302-0.982-0.703-1.313-1.205c-0.33-0.501-0.494-1.153-0.494-1.956c0-0.329,0.057-0.67,0.172-1.021
		c0.115-0.351,0.291-0.698,0.527-1.042c0.236-0.345,0.533-0.67,0.893-0.979c0.357-0.309,0.781-0.584,1.268-0.828
		c-1.117-0.602-1.996-1.404-2.633-2.408c-0.639-1.003-0.957-2.178-0.957-3.525c0-1.09,0.219-2.075,0.656-2.957
		c0.436-0.881,1.045-1.634,1.826-2.258c0.781-0.623,1.707-1.1,2.773-1.43C416.704,60.854,417.868,60.688,419.13,60.688z
		 M424.956,84.062c0-0.439-0.129-0.798-0.387-1.076c-0.258-0.277-0.609-0.494-1.053-0.647c-0.445-0.153-0.965-0.267-1.559-0.341
		c-0.596-0.072-1.227-0.109-1.893-0.109s-1.355,0-2.064,0s-1.395-0.078-2.053-0.236c-0.602,0.33-1.086,0.721-1.451,1.172
		s-0.549,0.971-0.549,1.559c0,0.387,0.098,0.748,0.291,1.086c0.193,0.336,0.502,0.627,0.924,0.871
		c0.424,0.243,0.971,0.433,1.645,0.569c0.674,0.136,1.498,0.204,2.473,0.204c0.99,0,1.842-0.077,2.559-0.23
		c0.717-0.154,1.309-0.365,1.773-0.637c0.467-0.271,0.807-0.593,1.021-0.966C424.849,84.905,424.956,84.499,424.956,84.062z
		 M419.13,71.567c0.66,0,1.232-0.089,1.721-0.269c0.486-0.179,0.893-0.427,1.215-0.741c0.322-0.315,0.566-0.695,0.73-1.14
		s0.248-0.932,0.248-1.462c0-1.09-0.326-1.953-0.979-2.591s-1.631-0.957-2.936-0.957s-2.283,0.319-2.934,0.957
		c-0.652,0.638-0.979,1.501-0.979,2.591c0,0.516,0.082,0.996,0.246,1.44c0.166,0.444,0.408,0.827,0.732,1.149
		c0.322,0.323,0.73,0.574,1.225,0.753C417.915,71.479,418.485,71.567,419.13,71.567z"/>
</g>
</svg>
